<?xml version="1.0" encoding="iso-8859-1"?>
<!-- Generator: Adobe Illustrator 17.0.0, SVG Export Plug-In . SVG Version: 6.00 Build 0)  -->
<!DOCTYPE svg PUBLIC "-//W3C//DTD SVG 1.1//EN" "http://www.w3.org/Graphics/SVG/1.1/DTD/svg11.dtd">
<svg version="1.1" id="&#x56FE;&#x5C42;_1" xmlns="http://www.w3.org/2000/svg" xmlns:xlink="http://www.w3.org/1999/xlink" x="0px"
	 y="0px" width="16px" height="16px" viewBox="0 0 16 16" style="enable-background:new 0 0 16 16;" xml:space="preserve">
<g>
	<g>
		<path style="fill:#B3B3B3;" d="M15.231,3.414c0,0,0.607-0.471-0.022-1.099L13.345,0.37c0,0-0.556-0.757-1.208-0.106l-1.24,1.333
			l3.126,3.046L15.231,3.414z M13.32,5.462l-3.31-3.131L2.496,9.891l3.389,2.912L13.32,5.462z M2.09,14.773l-1.266-1.17
			l-0.317,1.399H0.506V16h14.982v-0.999H0.539L2.09,14.773z M4.913,13.622l-3.335-2.794l-0.423,1.876l1.936,1.636L4.913,13.622z
			 M4.913,13.622"/>
	</g>
</g>
<g>
</g>
<g>
</g>
<g>
</g>
<g>
</g>
<g>
</g>
<g>
</g>
</svg>
