<?xml version="1.0" encoding="iso-8859-1"?>
<!-- Generator: Adobe Illustrator 17.0.0, SVG Export Plug-In . SVG Version: 6.00 Build 0)  -->
<!DOCTYPE svg PUBLIC "-//W3C//DTD SVG 1.1//EN" "http://www.w3.org/Graphics/SVG/1.1/DTD/svg11.dtd">
<svg version="1.1" id="&#x56FE;&#x5C42;_1" xmlns="http://www.w3.org/2000/svg" xmlns:xlink="http://www.w3.org/1999/xlink" x="0px"
	 y="0px" width="16px" height="16px" viewBox="0 0 16 16" style="enable-background:new 0 0 16 16;" xml:space="preserve">
<g>
	<g>
		<path style="fill:#B3B3B3;" d="M8.479,9.682C8.354,9.684,8.266,9.887,8.266,9.887l-5.109,5.081l-2.703,0.905
			c-0.729-0.729,0.022-2.633,0.022-2.633l1.488-0.59l0.025-0.952l0.916-0.01l0.455-0.465l0.03-0.899l0.858,0.049l0.391-1.284
			l1.386-1.443l0.241-0.266C5.536,5.616,5.8,3.369,7.267,1.902c1.929-1.929,5.012-1.972,6.889-0.095
			c1.876,1.876,2.022,5.071,0.092,7C12.625,10.432,9.613,10.498,8.479,9.682L8.479,9.682z M2.557,13.818
			c-0.128,0.128-0.132,0.332-0.008,0.457c0.124,0.124,0.329,0.12,0.457-0.008L7.643,9.63c0.128-0.128,0.132-0.333,0.008-0.457
			c-0.125-0.125-0.329-0.12-0.457,0.008L2.557,13.818z M13.26,2.756c-0.719-0.719-1.621-0.98-1.855-0.747
			c-0.233,0.233,0.197,0.967,0.916,1.685c0.718,0.718,1.452,1.149,1.685,0.916C14.24,4.377,13.978,3.474,13.26,2.756L13.26,2.756z
			 M13.26,2.756"/>
	</g>
</g>
<g>
</g>
<g>
</g>
<g>
</g>
<g>
</g>
<g>
</g>
<g>
</g>
</svg>
