<?xml version="1.0" encoding="iso-8859-1"?>
<!-- Generator: Adobe Illustrator 17.0.0, SVG Export Plug-In . SVG Version: 6.00 Build 0)  -->
<!DOCTYPE svg PUBLIC "-//W3C//DTD SVG 1.1//EN" "http://www.w3.org/Graphics/SVG/1.1/DTD/svg11.dtd">
<svg version="1.1" id="&#x56FE;&#x5C42;_1" xmlns="http://www.w3.org/2000/svg" xmlns:xlink="http://www.w3.org/1999/xlink" x="0px"
	 y="0px" width="16px" height="16px" viewBox="0 0 16 16" style="enable-background:new 0 0 16 16;" xml:space="preserve">
<g>
	<path style="fill:#B3B3B3;" d="M12.444,6.661V4.668c0,0-0.001-4.651-4.651-4.651S3.142,4.668,3.142,4.668v1.994H1.149v9.302h13.288
		V6.661H12.444 M8.457,11.792v2.178H7.128v-2.178c-0.395-0.23-0.664-0.655-0.664-1.145c0-0.735,0.595-1.329,1.329-1.329
		s1.329,0.595,1.329,1.329C9.122,11.138,8.853,11.562,8.457,11.792L8.457,11.792z M11.115,6.661H4.471V4.676
		C4.478,4.12,4.674,1.346,7.793,1.346c3.119,0,3.315,2.774,3.322,3.322V6.661"/>
</g>
<g>
</g>
<g>
</g>
<g>
</g>
<g>
</g>
<g>
</g>
<g>
</g>
</svg>
