<?xml version="1.0" standalone="no"?><!DOCTYPE svg PUBLIC "-//W3C//DTD SVG 1.1//EN" "http://www.w3.org/Graphics/SVG/1.1/DTD/svg11.dtd"><svg class="icon" width="16px" height="16.00px" viewBox="0 0 1024 1024" version="1.1" xmlns="http://www.w3.org/2000/svg"><path d="M813.714103 415.232H361.179246V246.564571c0-55.881143 67.547429-118.052571 150.820571-118.052571 83.273143 0 150.893714 62.171429 150.893714 118.052571V297.179429h0.621715c4.022857 28.598857 28.452571 50.578286 57.965714 50.578285 29.622857 0 54.016-21.942857 58.112-50.578285h0.658286V246.564571c0-130.413714-120.173714-236.141714-268.251429-236.141714-148.114286 0-268.214857 105.728-268.214857 236.141714v168.667429H210.285531A100.864 100.864 0 0 0 109.714103 516.425143V921.234286a100.864 100.864 0 0 0 100.534857 101.156571H813.714103c55.588571 0 100.571429-45.275429 100.571428-101.156571V516.388571a100.864 100.864 0 0 0-100.571428-101.156571zM562.322103 788.845714v46.116572c0 29.001143-22.528 52.443429-50.322286 52.443428-27.757714 0-50.322286-23.442286-50.322286-52.443428V788.845714a116.48 116.48 0 0 1-67.072-105.325714c0-64.365714 52.589714-116.516571 117.394286-116.516571 64.841143 0 117.357714 52.187429 117.357714 116.553142 0 46.482286-27.428571 86.601143-67.035428 105.289143z" fill="#CCCCCC" /></svg>