<?xml version="1.0" standalone="no"?><!DOCTYPE svg PUBLIC "-//W3C//DTD SVG 1.1//EN" "http://www.w3.org/Graphics/SVG/1.1/DTD/svg11.dtd"><svg class="icon" width="16px" height="16.00px" viewBox="0 0 1024 1024" version="1.1" xmlns="http://www.w3.org/2000/svg"><path d="M434.23893 997.719706C210.283725 957.016781 51.98102 770.386739 51.98102 547.058995c0-125.582556 46.996956-238.36673 135.848325-326.011372 41.407386-40.84501 62.439373-53.892639 86.871675-53.892639 35.241114 0 64.04991 29.633664 63.966264 65.79778-0.044544 19.297536-9.801211 32.422062-59.783183 80.420234-66.443095 63.805937-98.903081 139.661471-98.903081 231.125996 0 143.458714 95.505203 273.093786 232.96 316.210893 50.694851 15.902106 138.664637 15.915418 189.439985 0.03072 50.18112-15.700787 113.636659-56.276326 148.294912-94.824602 31.939277-35.524096 65.134234-97.833216 76.934195-144.410675 9.973248-39.366758 9.90121-115.085435-0.146432-154.008591-18.050406-69.924337-60.175411-134.903332-116.863744-180.265544-40.781107-32.633226-49.635021-54.106614-36.177357-87.740733 11.529523-28.815027 43.371622-44.644081 73.491763-36.53356 46.88087 12.623703 130.02071 101.242076 170.621082 181.864131 29.083853 57.753288 40.883814 107.775667 43.479859 184.32001 2.061107 60.77097 0.798669 78.517094-8.295117 116.604518-39.459891 165.26935-158.819635 291.460147-320.871731 339.23543-35.96544 10.603162-59.600026 13.912371-109.827379 15.377715-35.199985 1.026918-75.151928-0.159744-88.782075-2.636954zm42.155628-458.32489c-30.638623-16.652954-30.173537-12.820429-30.173537-248.645719 0-194.130284 0.873861-217.189494 8.735043-230.497408 9.319183-15.776125 34.430162-30.312705 52.363187-30.312705 18.705966 0 43.896776 13.325073 54.335227 28.741469 9.456896 13.966756 10.088653 26.219812 11.501312 223.068918 1.65929 231.208735 1.134848 235.573893-30.626662 254.938399-19.635149 11.971174-47.027267 13.092403-66.134569 2.707046z" fill="#C3C3C3" /></svg>