<?xml version="1.0" encoding="UTF-8"?>
<svg width="322px" height="41px" viewBox="0 0 322 41" version="1.1" xmlns="http://www.w3.org/2000/svg" xmlns:xlink="http://www.w3.org/1999/xlink">
    <!-- Generator: Sketch 44.1 (41455) - http://www.bohemiancoding.com/sketch -->
    <title>OneKeeper Cloud</title>
    <desc>Created with Sketch.</desc>
    <defs></defs>
    <g id="logo" stroke="none" stroke-width="1" fill="none" fill-rule="evenodd">
        <g id="LOGO_登录页" transform="translate(-1.000000, -5.000000)" fill="#1872C7">
            <path d="M1.8,21.44 C1.8,18.8799872 2.2066626,16.6533428 3.02,14.76 C3.8333374,12.8666572 4.8933268,11.2933396 6.2,10.04 C7.5066732,8.7866604 8.9533254,7.8533364 10.54,7.24 C12.1266746,6.6266636 13.7066588,6.32 15.28,6.32 C17.4400108,6.32 19.3599916,6.719996 21.04,7.52 C22.7200084,8.320004 24.1333276,9.4066598 25.28,10.78 C26.4266724,12.1533402 27.2933304,13.7599908 27.88,15.6 C28.4666696,17.4400092 28.76,19.3866564 28.76,21.44 C28.76,23.7600116 28.4000036,25.8466574 27.68,27.7 C26.9599964,29.5533426 25.9800062,31.1399934 24.74,32.46 C23.4999938,33.7800066 22.0666748,34.7933298 20.44,35.5 C18.8133252,36.2066702 17.0933424,36.56 15.28,36.56 C13.413324,36.56 11.6600082,36.2133368 10.02,35.52 C8.3799918,34.8266632 6.9533394,33.8333398 5.74,32.54 C4.5266606,31.2466602 3.5666702,29.666676 2.86,27.8 C2.1533298,25.933324 1.8,23.8133452 1.8,21.44 Z M5.88,21.44 C5.88,23.2533424 6.113331,24.9066592 6.58,26.4 C7.046669,27.8933408 7.6999958,29.1799946 8.54,30.26 C9.3800042,31.3400054 10.3733276,32.179997 11.52,32.78 C12.6666724,33.380003 13.9199932,33.68 15.28,33.68 C16.6933404,33.68 17.9799942,33.3600032 19.14,32.72 C20.3000058,32.0799968 21.2866626,31.2133388 22.1,30.12 C22.9133374,29.0266612 23.5466644,27.7333408 24,26.24 C24.4533356,24.7466592 24.68,23.1466752 24.68,21.44 C24.68,19.573324 24.4333358,17.8866742 23.94,16.38 C23.4466642,14.8733258 22.7733376,13.586672 21.92,12.52 C21.0666624,11.453328 20.0666724,10.6400028 18.92,10.08 C17.7733276,9.5199972 16.5600064,9.24 15.28,9.24 C13.9999936,9.24 12.7866724,9.5199972 11.64,10.08 C10.4933276,10.6400028 9.4933376,11.453328 8.64,12.52 C7.7866624,13.586672 7.1133358,14.8733258 6.62,16.38 C6.1266642,17.8866742 5.88,19.573324 5.88,21.44 Z M37.32,15.32 C37.9600032,16.0400036 38.379999,16.7533298 38.58,17.46 C38.780001,18.1666702 38.88,18.919996 38.88,19.72 L38.88,36 L35.04,36 L35.04,20.36 C35.04,19.6133296 34.9933338,18.8200042 34.9,17.98 C34.8066662,17.1399958 34.6533344,16.253338 34.44,15.32 L37.32,15.32 Z M48.16,20.96 C48.16,20.026662 47.9533354,19.2666696 47.54,18.68 C47.1266646,18.0933304 46.5066708,17.8 45.68,17.8 C45.3599984,17.8 45.0800012,17.833333 44.84,17.9 C44.5999988,17.966667 44.3066684,18.0399996 43.96,18.12 C43.1866628,18.3066676 42.46667,18.3200008 41.8,18.16 C41.13333,17.9999992 40.5200028,17.6266696 39.96,17.04 C41.3733404,16.2133292 42.5599952,15.6533348 43.52,15.36 C44.4800048,15.0666652 45.3199964,14.92 46.04,14.92 C46.840004,14.92 47.5999964,15.019999 48.32,15.22 C49.0400036,15.420001 49.6733306,15.7733308 50.22,16.28 C50.7666694,16.7866692 51.1999984,17.4533292 51.52,18.28 C51.8400016,19.1066708 52,20.1333272 52,21.36 L52,36 L48.16,36 L48.16,20.96 Z M71.36,23.32 C71.4400004,22.5466628 71.3866676,21.82667 71.2,21.16 C71.0133324,20.49333 70.7266686,19.9066692 70.34,19.4 C69.9533314,18.8933308 69.4800028,18.5000014 68.92,18.22 C68.3599972,17.9399986 67.7600032,17.8 67.12,17.8 C65.4399916,17.8 64.0733386,18.46666 63.02,19.8 C61.9666614,21.13334 61.44,23.0399876 61.44,25.52 C61.44,26.720006 61.5999984,27.8066618 61.92,28.78 C62.2400016,29.7533382 62.6866638,30.5933298 63.26,31.3 C63.8333362,32.0066702 64.5066628,32.5533314 65.28,32.94 C66.0533372,33.3266686 66.8933288,33.52 67.8,33.52 C68.733338,33.52 69.6066626,33.4266676 70.42,33.24 C71.2333374,33.0533324 72.2133276,32.6666696 73.36,32.08 L74.36,34.72 C73.0799936,35.38667 71.840006,35.8333322 70.64,36.06 C69.439994,36.2866678 68.3600048,36.4 67.4,36.4 C65.933326,36.4 64.600006,36.1266694 63.4,35.58 C62.199994,35.0333306 61.1800042,34.2733382 60.34,33.3 C59.4999958,32.3266618 58.8533356,31.17334 58.4,29.84 C57.9466644,28.50666 57.72,27.0533412 57.72,25.48 C57.72,23.8533252 57.9466644,22.3933398 58.4,21.1 C58.8533356,19.8066602 59.5066624,18.7000046 60.36,17.78 C61.2133376,16.8599954 62.239994,16.1533358 63.44,15.66 C64.640006,15.1666642 65.9999924,14.92 67.52,14.92 C68.8800068,14.92 70.093328,15.2266636 71.16,15.84 C72.226672,16.4533364 73.0799968,17.2733282 73.72,18.3 C74.3600032,19.3266718 74.7533326,20.50666 74.9,21.84 C75.0466674,23.17334 74.9066688,24.5599928 74.48,26 L62.88,26 C63.1733348,25.2266628 63.5733308,24.5866692 64.08,24.08 C64.5866692,23.5733308 65.3199952,23.32 66.28,23.32 L71.36,23.32 Z M92.52,18.68 L102.88,36 L98.28,36 L90.52,22.12 L90.24,21.4 L89.88,22.12 L86.72,26.28 C86.5333324,25.879998 86.4200002,25.4066694 86.38,24.86 C86.3399998,24.3133306 86.3666662,23.7333364 86.46,23.12 C86.5533338,22.5066636 86.7199988,21.8933364 86.96,21.28 C87.2000012,20.6666636 87.519998,20.0800028 87.92,19.52 L97.24,6.92 L101.56,6.92 L92.52,18.68 Z M80.8,36 L80.8,6.92 L84.6,6.92 L84.6,36 L80.8,36 Z M119.56,23.32 C119.64,22.5466628 119.586668,21.82667 119.4,21.16 C119.213332,20.49333 118.926669,19.9066692 118.54,19.4 C118.153331,18.8933308 117.680003,18.5000014 117.12,18.22 C116.559997,17.9399986 115.960003,17.8 115.32,17.8 C113.639992,17.8 112.273339,18.46666 111.22,19.8 C110.166661,21.13334 109.64,23.0399876 109.64,25.52 C109.64,26.720006 109.799998,27.8066618 110.12,28.78 C110.440002,29.7533382 110.886664,30.5933298 111.46,31.3 C112.033336,32.0066702 112.706663,32.5533314 113.48,32.94 C114.253337,33.3266686 115.093329,33.52 116,33.52 C116.933338,33.52 117.806663,33.4266676 118.62,33.24 C119.433337,33.0533324 120.413328,32.6666696 121.56,32.08 L122.56,34.72 C121.279994,35.38667 120.040006,35.8333322 118.84,36.06 C117.639994,36.2866678 116.560005,36.4 115.6,36.4 C114.133326,36.4 112.800006,36.1266694 111.6,35.58 C110.399994,35.0333306 109.380004,34.2733382 108.54,33.3 C107.699996,32.3266618 107.053336,31.17334 106.6,29.84 C106.146664,28.50666 105.92,27.0533412 105.92,25.48 C105.92,23.8533252 106.146664,22.3933398 106.6,21.1 C107.053336,19.8066602 107.706662,18.7000046 108.56,17.78 C109.413338,16.8599954 110.439994,16.1533358 111.64,15.66 C112.840006,15.1666642 114.199992,14.92 115.72,14.92 C117.080007,14.92 118.293328,15.2266636 119.36,15.84 C120.426672,16.4533364 121.279997,17.2733282 121.92,18.3 C122.560003,19.3266718 122.953333,20.50666 123.1,21.84 C123.246667,23.17334 123.106669,24.5599928 122.68,26 L111.08,26 C111.373335,25.2266628 111.773331,24.5866692 112.28,24.08 C112.786669,23.5733308 113.519995,23.32 114.48,23.32 L119.56,23.32 Z M141.32,23.32 C141.4,22.5466628 141.346668,21.82667 141.16,21.16 C140.973332,20.49333 140.686669,19.9066692 140.3,19.4 C139.913331,18.8933308 139.440003,18.5000014 138.88,18.22 C138.319997,17.9399986 137.720003,17.8 137.08,17.8 C135.399992,17.8 134.033339,18.46666 132.98,19.8 C131.926661,21.13334 131.4,23.0399876 131.4,25.52 C131.4,26.720006 131.559998,27.8066618 131.88,28.78 C132.200002,29.7533382 132.646664,30.5933298 133.22,31.3 C133.793336,32.0066702 134.466663,32.5533314 135.24,32.94 C136.013337,33.3266686 136.853329,33.52 137.76,33.52 C138.693338,33.52 139.566663,33.4266676 140.38,33.24 C141.193337,33.0533324 142.173328,32.6666696 143.32,32.08 L144.32,34.72 C143.039994,35.38667 141.800006,35.8333322 140.6,36.06 C139.399994,36.2866678 138.320005,36.4 137.36,36.4 C135.893326,36.4 134.560006,36.1266694 133.36,35.58 C132.159994,35.0333306 131.140004,34.2733382 130.3,33.3 C129.459996,32.3266618 128.813336,31.17334 128.36,29.84 C127.906664,28.50666 127.68,27.0533412 127.68,25.48 C127.68,23.8533252 127.906664,22.3933398 128.36,21.1 C128.813336,19.8066602 129.466662,18.7000046 130.32,17.78 C131.173338,16.8599954 132.199994,16.1533358 133.4,15.66 C134.600006,15.1666642 135.959992,14.92 137.48,14.92 C138.840007,14.92 140.053328,15.2266636 141.12,15.84 C142.186672,16.4533364 143.039997,17.2733282 143.68,18.3 C144.320003,19.3266718 144.713333,20.50666 144.86,21.84 C145.006667,23.17334 144.866669,24.5599928 144.44,26 L132.84,26 C133.133335,25.2266628 133.533331,24.5866692 134.04,24.08 C134.546669,23.5733308 135.279995,23.32 136.24,23.32 L141.32,23.32 Z M169.08,25.76 C169.08,27.360008 168.820003,28.8066602 168.3,30.1 C167.779997,31.3933398 167.093338,32.4933288 166.24,33.4 C165.386662,34.3066712 164.400006,35.0066642 163.28,35.5 C162.159994,35.9933358 161.000006,36.24 159.8,36.24 C159.186664,36.24 158.54667,36.1933338 157.88,36.1 C157.21333,36.0066662 156.520004,35.826668 155.8,35.56 C156.173335,34.89333 156.659997,34.3533354 157.26,33.94 C157.860003,33.5266646 158.626662,33.3333332 159.56,33.36 C160.253337,33.3866668 160.93333,33.2600014 161.6,32.98 C162.26667,32.6999986 162.859997,32.2466698 163.38,31.62 C163.900003,30.9933302 164.319998,30.2000048 164.64,29.24 C164.960002,28.2799952 165.12,27.1200068 165.12,25.76 C165.12,24.6133276 165.006668,23.5466716 164.78,22.56 C164.553332,21.5733284 164.206669,20.7333368 163.74,20.04 C163.273331,19.3466632 162.700003,18.800002 162.02,18.4 C161.339997,17.999998 160.560004,17.8 159.68,17.8 C158.773329,17.8 157.880004,18.033331 157,18.5 C156.119996,18.966669 155.266671,19.7066616 154.44,20.72 L154.44,45.64 L150.76,45.64 L150.76,22.16 C150.76,20.559992 150.693334,19.193339 150.56,18.06 C150.426666,16.926661 150.280001,16.0133368 150.12,15.32 L152.8,15.32 C153.146668,15.6133348 153.419999,15.9133318 153.62,16.22 C153.820001,16.5266682 154.013332,16.946664 154.2,17.48 L154.28,18.12 L154.6,17.4 C155.453338,16.466662 156.406661,15.8200018 157.46,15.46 C158.513339,15.0999982 159.466662,14.92 160.32,14.92 C161.706674,14.92 162.946661,15.1999972 164.04,15.76 C165.133339,16.3200028 166.05333,17.0866618 166.8,18.06 C167.54667,19.0333382 168.113331,20.1799934 168.5,21.5 C168.886669,22.8200066 169.08,24.2399924 169.08,25.76 Z M187,23.32 C187.08,22.5466628 187.026668,21.82667 186.84,21.16 C186.653332,20.49333 186.366669,19.9066692 185.98,19.4 C185.593331,18.8933308 185.120003,18.5000014 184.56,18.22 C183.999997,17.9399986 183.400003,17.8 182.76,17.8 C181.079992,17.8 179.713339,18.46666 178.66,19.8 C177.606661,21.13334 177.08,23.0399876 177.08,25.52 C177.08,26.720006 177.239998,27.8066618 177.56,28.78 C177.880002,29.7533382 178.326664,30.5933298 178.9,31.3 C179.473336,32.0066702 180.146663,32.5533314 180.92,32.94 C181.693337,33.3266686 182.533329,33.52 183.44,33.52 C184.373338,33.52 185.246663,33.4266676 186.06,33.24 C186.873337,33.0533324 187.853328,32.6666696 189,32.08 L190,34.72 C188.719994,35.38667 187.480006,35.8333322 186.28,36.06 C185.079994,36.2866678 184.000005,36.4 183.04,36.4 C181.573326,36.4 180.240006,36.1266694 179.04,35.58 C177.839994,35.0333306 176.820004,34.2733382 175.98,33.3 C175.139996,32.3266618 174.493336,31.17334 174.04,29.84 C173.586664,28.50666 173.36,27.0533412 173.36,25.48 C173.36,23.8533252 173.586664,22.3933398 174.04,21.1 C174.493336,19.8066602 175.146662,18.7000046 176,17.78 C176.853338,16.8599954 177.879994,16.1533358 179.08,15.66 C180.280006,15.1666642 181.639992,14.92 183.16,14.92 C184.520007,14.92 185.733328,15.2266636 186.8,15.84 C187.866672,16.4533364 188.719997,17.2733282 189.36,18.3 C190.000003,19.3266718 190.393333,20.50666 190.54,21.84 C190.686667,23.17334 190.546669,24.5599928 190.12,26 L178.52,26 C178.813335,25.2266628 179.213331,24.5866692 179.72,24.08 C180.226669,23.5733308 180.959995,23.32 181.92,23.32 L187,23.32 Z M198.48,15.32 C198.906669,15.7733356 199.206666,16.2599974 199.38,16.78 C199.553334,17.3000026 199.706666,17.8799968 199.84,18.52 L199.84,19.24 L200.16,18.52 C200.693336,17.5066616 201.439995,16.6733366 202.4,16.02 C203.360005,15.3666634 204.386661,15.04 205.48,15.04 C206.013336,15.04 206.666663,15.1466656 207.44,15.36 L206.96,18.48 C206.533331,18.3733328 206.166668,18.3066668 205.86,18.28 C205.553332,18.2533332 205.280001,18.24 205.04,18.24 C204.426664,18.24 203.813336,18.3666654 203.2,18.62 C202.586664,18.8733346 202.040002,19.266664 201.56,19.8 C201.079998,20.333336 200.686668,21.0266624 200.38,21.88 C200.073332,22.7333376 199.92,23.759994 199.92,24.96 L199.92,36 L196.36,36 L196.36,22.32 C196.36,21.0933272 196.306667,19.8533396 196.2,18.6 C196.093333,17.3466604 195.933334,16.253338 195.72,15.32 L198.48,15.32 Z M236.16,36.48 C234.106656,36.48 232.200009,36.1333368 230.44,35.44 C228.679991,34.7466632 227.146673,33.7533398 225.84,32.46 C224.533327,31.1666602 223.513337,29.6000092 222.78,27.76 C222.046663,25.9199908 221.68,23.8400116 221.68,21.52 C221.68,19.2799888 222.046663,17.2333426 222.78,15.38 C223.513337,13.5266574 224.533327,11.93334 225.84,10.6 C227.146673,9.26666 228.679991,8.233337 230.44,7.5 C232.200009,6.766663 234.106656,6.4 236.16,6.4 C237.280006,6.4 238.433327,6.5133322 239.62,6.74 C240.806673,6.9666678 242.013327,7.3066644 243.24,7.76 L242.2,10.36 C241.026661,9.9866648 239.960005,9.7200008 239,9.56 C238.039995,9.3999992 237.093338,9.32 236.16,9.32 C234.773326,9.32 233.45334,9.5733308 232.2,10.08 C230.94666,10.5866692 229.840005,11.3466616 228.88,12.36 C227.919995,13.3733384 227.160003,14.646659 226.6,16.18 C226.039997,17.713341 225.76,19.4933232 225.76,21.52 C225.76,23.3333424 226.039997,24.9799926 226.6,26.46 C227.160003,27.9400074 227.919995,29.213328 228.88,30.28 C229.840005,31.346672 230.94666,32.1666638 232.2,32.74 C233.45334,33.3133362 234.773326,33.6 236.16,33.6 C237.093338,33.6 238.053328,33.4800012 239.04,33.24 C240.026672,32.9999988 241.079994,32.6000028 242.2,32.04 L243.24,34.64 C241.98666,35.30667 240.773339,35.7799986 239.6,36.06 C238.426661,36.3400014 237.280006,36.48 236.16,36.48 Z M251.92,36 L248.28,36 L248.28,5.68 L251.92,5.68 L251.92,36 Z M256.64,25.64 C256.64,23.7999908 256.919997,22.2066734 257.48,20.86 C258.040003,19.5133266 258.773329,18.4000044 259.68,17.52 C260.586671,16.6399956 261.619994,15.9866688 262.78,15.56 C263.940006,15.1333312 265.106661,14.92 266.28,14.92 C267.800008,14.92 269.159994,15.1999972 270.36,15.76 C271.560006,16.3200028 272.573329,17.0799952 273.4,18.04 C274.226671,19.0000048 274.853331,20.1333268 275.28,21.44 C275.706669,22.7466732 275.92,24.1466592 275.92,25.64 C275.92,27.373342 275.660003,28.9133266 275.14,30.26 C274.619997,31.6066734 273.920004,32.7333288 273.04,33.64 C272.159996,34.5466712 271.133339,35.233331 269.96,35.7 C268.786661,36.166669 267.560006,36.4 266.28,36.4 C264.94666,36.4 263.693339,36.166669 262.52,35.7 C261.346661,35.233331 260.326671,34.5466712 259.46,33.64 C258.593329,32.7333288 257.906669,31.6066734 257.4,30.26 C256.893331,28.9133266 256.64,27.373342 256.64,25.64 Z M260.6,25.64 C260.6,26.8133392 260.726665,27.8799952 260.98,28.84 C261.233335,29.8000048 261.599998,30.6266632 262.08,31.32 C262.560002,32.0133368 263.15333,32.5533314 263.86,32.94 C264.56667,33.3266686 265.373329,33.52 266.28,33.52 C267.240005,33.52 268.079996,33.3133354 268.8,32.9 C269.520004,32.4866646 270.113331,31.9200036 270.58,31.2 C271.046669,30.4799964 271.393332,29.6400048 271.62,28.68 C271.846668,27.7199952 271.96,26.706672 271.96,25.64 C271.96,24.30666 271.806668,23.1466716 271.5,22.16 C271.193332,21.1733284 270.780003,20.3600032 270.26,19.72 C269.739997,19.0799968 269.133337,18.6000016 268.44,18.28 C267.746663,17.9599984 267.02667,17.8 266.28,17.8 C265.506663,17.8 264.780003,17.9599984 264.1,18.28 C263.419997,18.6000016 262.820003,19.0799968 262.3,19.72 C261.779997,20.3600032 261.366668,21.1733284 261.06,22.16 C260.753332,23.1466716 260.6,24.30666 260.6,25.64 Z M295.08,36 C294.439997,35.2799964 294.020001,34.5666702 293.82,33.86 C293.619999,33.1533298 293.52,32.400004 293.52,31.6 L293.52,15.32 L297.24,15.32 L297.24,30.96 C297.24,31.7066704 297.286666,32.4999958 297.38,33.34 C297.473334,34.1800042 297.639999,35.066662 297.88,36 L295.08,36 Z M284.28,30.36 C284.28,31.293338 284.473331,32.0533304 284.86,32.64 C285.246669,33.2266696 285.866662,33.52 286.72,33.52 C287.040002,33.52 287.313332,33.486667 287.54,33.42 C287.766668,33.353333 288.066665,33.2800004 288.44,33.2 C289.213337,33.0133324 289.93333,32.9999992 290.6,33.16 C291.26667,33.3200008 291.879997,33.6933304 292.44,34.28 C291.02666,35.1333376 289.833338,35.6999986 288.86,35.98 C287.886662,36.2600014 287.040004,36.4 286.32,36.4 C285.519996,36.4 284.773337,36.300001 284.08,36.1 C283.386663,35.899999 282.773336,35.5466692 282.24,35.04 C281.706664,34.5333308 281.286668,33.8733374 280.98,33.06 C280.673332,32.2466626 280.52,31.2133396 280.52,29.96 L280.52,15.32 L284.28,15.32 L284.28,30.36 Z M303.2,25.56 C303.2,23.959992 303.459997,22.5133398 303.98,21.22 C304.500003,19.9266602 305.193329,18.8266712 306.06,17.92 C306.926671,17.0133288 307.913328,16.3133358 309.02,15.82 C310.126672,15.3266642 311.279994,15.08 312.48,15.08 C313.093336,15.08 313.73333,15.1266662 314.4,15.22 C315.06667,15.3133338 315.759996,15.493332 316.48,15.76 C316.106665,16.42667 315.620003,16.9666646 315.02,17.38 C314.419997,17.7933354 313.653338,17.9866668 312.72,17.96 C312.026663,17.9333332 311.34667,18.0599986 310.68,18.34 C310.01333,18.6200014 309.420003,19.0666636 308.9,19.68 C308.379997,20.2933364 307.960002,21.0866618 307.64,22.06 C307.319998,23.0333382 307.16,24.1999932 307.16,25.56 C307.16,26.7333392 307.279999,27.8066618 307.52,28.78 C307.760001,29.7533382 308.106664,30.5866632 308.56,31.28 C309.013336,31.9733368 309.579997,32.519998 310.26,32.92 C310.940003,33.320002 311.719996,33.52 312.6,33.52 C314.493343,33.52 316.239992,32.5466764 317.84,30.6 L317.84,5.68 L321.56,5.68 L321.56,29.16 C321.56,30.760008 321.619999,32.126661 321.74,33.26 C321.860001,34.393339 321.999999,35.3066632 322.16,36 L319.48,36 C319.159998,35.7066652 318.900001,35.4066682 318.7,35.1 C318.499999,34.7933318 318.293334,34.373336 318.08,33.84 L318,33.2 L317.68,33.88 C316.853329,34.813338 315.906672,35.4666648 314.84,35.84 C313.773328,36.2133352 312.826671,36.4 312,36.4 C310.58666,36.4 309.340005,36.1200028 308.26,35.56 C307.179995,34.9999972 306.260004,34.2333382 305.5,33.26 C304.739996,32.2866618 304.166669,31.1400066 303.78,29.82 C303.393331,28.4999934 303.2,27.0800076 303.2,25.56 Z" id="OneKeeper-Cloud"></path>
        </g>
    </g>
</svg>