<?xml version="1.0" encoding="UTF-8"?>
<svg width="225px" height="29px" viewBox="0 0 225 29" version="1.1" xmlns="http://www.w3.org/2000/svg" xmlns:xlink="http://www.w3.org/1999/xlink">
    <!-- Generator: Sketch 44.1 (41455) - http://www.bohemiancoding.com/sketch -->
    <title>LOGO_内容页</title>
    <desc>Created with Sketch.</desc>
    <defs></defs>
    <g id="logo" stroke="none" stroke-width="1" fill="none" fill-rule="evenodd">
        <path d="M0.26,11.808 C0.26,10.015991 0.54466382,8.45733996 1.114,7.132 C1.68333618,5.80666004 2.42532876,4.70533772 3.34,3.828 C4.25467124,2.95066228 5.26732778,2.29733548 6.378,1.868 C7.48867222,1.43866452 8.59466116,1.224 9.696,1.224 C11.2080076,1.224 12.5519941,1.5039972 13.728,2.064 C14.9040059,2.6240028 15.8933293,3.38466186 16.696,4.346 C17.4986707,5.30733814 18.1053313,6.43199356 18.516,7.72 C18.9266687,9.00800644 19.132,10.3706595 19.132,11.808 C19.132,13.4320081 18.8800025,14.8926602 18.376,16.19 C17.8719975,17.4873398 17.1860043,18.5979954 16.318,19.522 C15.4499957,20.4460046 14.4466724,21.1553309 13.308,21.65 C12.1693276,22.1446691 10.9653397,22.392 9.696,22.392 C8.3893268,22.392 7.16200574,22.1493358 6.014,21.664 C4.86599426,21.1786642 3.86733758,20.4833379 3.018,19.578 C2.16866242,18.6726621 1.49666914,17.5666732 1.002,16.26 C0.50733086,14.9533268 0.26,13.4693416 0.26,11.808 Z M3.116,11.808 C3.116,13.0773397 3.2793317,14.2346614 3.606,15.28 C3.9326683,16.3253386 4.38999706,17.2259962 4.978,17.982 C5.56600294,18.7380038 6.26132932,19.3259979 7.064,19.746 C7.86667068,20.1660021 8.74399524,20.376 9.696,20.376 C10.6853383,20.376 11.5859959,20.1520022 12.398,19.704 C13.2100041,19.2559978 13.9006638,18.6493372 14.47,17.884 C15.0393362,17.1186628 15.4826651,16.2133386 15.8,15.168 C16.1173349,14.1226614 16.276,13.0026726 16.276,11.808 C16.276,10.5013268 16.1033351,9.32067194 15.758,8.266 C15.4126649,7.21132806 14.9413363,6.3106704 14.344,5.564 C13.7466637,4.8173296 13.0466707,4.24800196 12.244,3.856 C11.4413293,3.46399804 10.5920045,3.268 9.696,3.268 C8.79999552,3.268 7.95067068,3.46399804 7.148,3.856 C6.34532932,4.24800196 5.64533632,4.8173296 5.048,5.564 C4.45066368,6.3106704 3.97933506,7.21132806 3.634,8.266 C3.28866494,9.32067194 3.116,10.5013268 3.116,11.808 Z M25.124,7.524 C25.5720022,8.02800252 25.8659993,8.52733086 26.006,9.022 C26.1460007,9.51666914 26.216,10.0439972 26.216,10.604 L26.216,22 L23.528,22 L23.528,11.052 C23.528,10.5293307 23.4953337,9.97400294 23.43,9.386 C23.3646663,8.79799706 23.2573341,8.1773366 23.108,7.524 L25.124,7.524 Z M32.712,11.472 C32.712,10.8186634 32.5673348,10.2866687 32.278,9.876 C31.9886652,9.46533128 31.5546696,9.26 30.976,9.26 C30.7519989,9.26 30.5560008,9.2833331 30.388,9.33 C30.2199992,9.3766669 30.0146679,9.42799972 29.772,9.484 C29.230664,9.61466732 28.726669,9.62400056 28.26,9.512 C27.793331,9.39999944 27.364002,9.13866872 26.972,8.728 C27.9613383,8.14933044 28.7919966,7.75733436 29.464,7.552 C30.1360034,7.34666564 30.7239975,7.244 31.228,7.244 C31.7880028,7.244 32.3199975,7.3139993 32.824,7.454 C33.3280025,7.5940007 33.7713314,7.84133156 34.154,8.196 C34.5366686,8.55066844 34.8399989,9.01733044 35.064,9.596 C35.2880011,10.1746696 35.4,10.893329 35.4,11.752 L35.4,22 L32.712,22 L32.712,11.472 Z M48.952,13.124 C49.0080003,12.582664 48.9706673,12.078669 48.84,11.612 C48.7093327,11.145331 48.508668,10.7346684 48.238,10.38 C47.967332,10.0253316 47.636002,9.75000098 47.244,9.554 C46.851998,9.35799902 46.4320022,9.26 45.984,9.26 C44.8079941,9.26 43.851337,9.726662 43.114,10.66 C42.376663,11.593338 42.008,12.9279913 42.008,14.664 C42.008,15.5040042 42.1199989,16.2646633 42.344,16.946 C42.5680011,17.6273367 42.8806647,18.2153309 43.282,18.71 C43.6833353,19.2046691 44.154664,19.587332 44.696,19.858 C45.237336,20.128668 45.8253302,20.264 46.46,20.264 C47.1133366,20.264 47.7246638,20.1986673 48.294,20.068 C48.8633362,19.9373327 49.5493293,19.6666687 50.352,19.256 L51.052,21.104 C50.1559955,21.570669 49.2880042,21.8833325 48.448,22.042 C47.6079958,22.2006675 46.8520034,22.28 46.18,22.28 C45.1533282,22.28 44.2200042,22.0886686 43.38,21.706 C42.5399958,21.3233314 41.8260029,20.7913367 41.238,20.11 C40.6499971,19.4286633 40.1973349,18.621338 39.88,17.688 C39.5626651,16.754662 39.404,15.7373388 39.404,14.636 C39.404,13.4973276 39.5626651,12.4753379 39.88,11.57 C40.1973349,10.6646621 40.6546637,9.89000322 41.252,9.246 C41.8493363,8.60199678 42.5679958,8.10733506 43.408,7.762 C44.2480042,7.41666494 45.1999947,7.244 46.264,7.244 C47.2160048,7.244 48.0653296,7.45866452 48.812,7.888 C49.5586704,8.31733548 50.1559978,8.89132974 50.604,9.61 C51.0520022,10.3286703 51.3273328,11.154662 51.43,12.088 C51.5326672,13.021338 51.4346682,13.991995 51.136,15 L43.016,15 C43.2213344,14.458664 43.5013316,14.0106684 43.856,13.656 C44.2106684,13.3013316 44.7239966,13.124 45.396,13.124 L48.952,13.124 Z M63.764,9.876 L71.016,22 L67.796,22 L62.364,12.284 L62.168,11.78 L61.916,12.284 L59.704,15.196 C59.5733327,14.9159986 59.4940001,14.5846686 59.466,14.202 C59.4379999,13.8193314 59.4566663,13.4133355 59.522,12.984 C59.5873337,12.5546645 59.7039992,12.1253355 59.872,11.696 C60.0400008,11.2666645 60.2639986,10.856002 60.544,10.464 L67.068,1.644 L70.092,1.644 L63.764,9.876 Z M55.56,22 L55.56,1.644 L58.22,1.644 L58.22,22 L55.56,22 Z M82.692,13.124 C82.7480003,12.582664 82.7106673,12.078669 82.58,11.612 C82.4493327,11.145331 82.248668,10.7346684 81.978,10.38 C81.707332,10.0253316 81.376002,9.75000098 80.984,9.554 C80.591998,9.35799902 80.1720022,9.26 79.724,9.26 C78.5479941,9.26 77.591337,9.726662 76.854,10.66 C76.116663,11.593338 75.748,12.9279913 75.748,14.664 C75.748,15.5040042 75.8599989,16.2646633 76.084,16.946 C76.3080011,17.6273367 76.6206647,18.2153309 77.022,18.71 C77.4233353,19.2046691 77.894664,19.587332 78.436,19.858 C78.977336,20.128668 79.5653302,20.264 80.2,20.264 C80.8533366,20.264 81.4646638,20.1986673 82.034,20.068 C82.6033362,19.9373327 83.2893293,19.6666687 84.092,19.256 L84.792,21.104 C83.8959955,21.570669 83.0280042,21.8833325 82.188,22.042 C81.3479958,22.2006675 80.5920034,22.28 79.92,22.28 C78.8933282,22.28 77.9600042,22.0886686 77.12,21.706 C76.2799958,21.3233314 75.5660029,20.7913367 74.978,20.11 C74.3899971,19.4286633 73.9373349,18.621338 73.62,17.688 C73.3026651,16.754662 73.144,15.7373388 73.144,14.636 C73.144,13.4973276 73.3026651,12.4753379 73.62,11.57 C73.9373349,10.6646621 74.3946637,9.89000322 74.992,9.246 C75.5893363,8.60199678 76.3079958,8.10733506 77.148,7.762 C77.9880042,7.41666494 78.9399947,7.244 80.004,7.244 C80.9560048,7.244 81.8053296,7.45866452 82.552,7.888 C83.2986704,8.31733548 83.8959978,8.89132974 84.344,9.61 C84.7920022,10.3286703 85.0673328,11.154662 85.17,12.088 C85.2726672,13.021338 85.1746682,13.991995 84.876,15 L76.756,15 C76.9613344,14.458664 77.2413316,14.0106684 77.596,13.656 C77.9506684,13.3013316 78.4639966,13.124 79.136,13.124 L82.692,13.124 Z M97.924,13.124 C97.9800003,12.582664 97.9426673,12.078669 97.812,11.612 C97.6813327,11.145331 97.480668,10.7346684 97.21,10.38 C96.939332,10.0253316 96.608002,9.75000098 96.216,9.554 C95.823998,9.35799902 95.4040022,9.26 94.956,9.26 C93.7799941,9.26 92.823337,9.726662 92.086,10.66 C91.348663,11.593338 90.98,12.9279913 90.98,14.664 C90.98,15.5040042 91.0919989,16.2646633 91.316,16.946 C91.5400011,17.6273367 91.8526647,18.2153309 92.254,18.71 C92.6553353,19.2046691 93.126664,19.587332 93.668,19.858 C94.209336,20.128668 94.7973302,20.264 95.432,20.264 C96.0853366,20.264 96.6966638,20.1986673 97.266,20.068 C97.8353362,19.9373327 98.5213293,19.6666687 99.324,19.256 L100.024,21.104 C99.1279955,21.570669 98.2600042,21.8833325 97.42,22.042 C96.5799958,22.2006675 95.8240034,22.28 95.152,22.28 C94.1253282,22.28 93.1920042,22.0886686 92.352,21.706 C91.5119958,21.3233314 90.7980029,20.7913367 90.21,20.11 C89.6219971,19.4286633 89.1693349,18.621338 88.852,17.688 C88.5346651,16.754662 88.376,15.7373388 88.376,14.636 C88.376,13.4973276 88.5346651,12.4753379 88.852,11.57 C89.1693349,10.6646621 89.6266637,9.89000322 90.224,9.246 C90.8213363,8.60199678 91.5399958,8.10733506 92.38,7.762 C93.2200042,7.41666494 94.1719947,7.244 95.236,7.244 C96.1880048,7.244 97.0373296,7.45866452 97.784,7.888 C98.5306704,8.31733548 99.1279978,8.89132974 99.576,9.61 C100.024002,10.3286703 100.299333,11.154662 100.402,12.088 C100.504667,13.021338 100.406668,13.991995 100.108,15 L91.988,15 C92.1933344,14.458664 92.4733316,14.0106684 92.828,13.656 C93.1826684,13.3013316 93.6959966,13.124 94.368,13.124 L97.924,13.124 Z M117.356,14.832 C117.356,15.9520056 117.174002,16.9646621 116.81,17.87 C116.445998,18.7753379 115.965336,19.5453302 115.368,20.18 C114.770664,20.8146698 114.080004,21.3046649 113.296,21.65 C112.511996,21.9953351 111.700004,22.168 110.86,22.168 C110.430665,22.168 109.982669,22.1353337 109.516,22.07 C109.049331,22.0046663 108.564003,21.8786676 108.06,21.692 C108.321335,21.225331 108.661998,20.8473348 109.082,20.558 C109.502002,20.2686652 110.038663,20.1333332 110.692,20.152 C111.177336,20.1706668 111.653331,20.082001 112.12,19.886 C112.586669,19.689999 113.001998,19.3726689 113.366,18.934 C113.730002,18.4953311 114.023999,17.9400034 114.248,17.268 C114.472001,16.5959966 114.584,15.7840048 114.584,14.832 C114.584,14.0293293 114.504667,13.2826701 114.346,12.592 C114.187333,11.9013299 113.944668,11.3133358 113.618,10.828 C113.291332,10.3426642 112.890002,9.9600014 112.414,9.68 C111.937998,9.3999986 111.392003,9.26 110.776,9.26 C110.14133,9.26 109.516003,9.4233317 108.9,9.75 C108.283997,10.0766683 107.68667,10.5946631 107.108,11.304 L107.108,28.748 L104.532,28.748 L104.532,12.312 C104.532,11.1919944 104.485334,10.2353373 104.392,9.442 C104.298666,8.6486627 104.196001,8.00933576 104.084,7.524 L105.96,7.524 C106.202668,7.72933436 106.393999,7.93933226 106.534,8.154 C106.674001,8.36866774 106.809333,8.6626648 106.94,9.036 L106.996,9.484 L107.22,8.98 C107.817336,8.3266634 108.484663,7.87400126 109.222,7.622 C109.959337,7.36999874 110.626664,7.244 111.224,7.244 C112.194672,7.244 113.062663,7.43999804 113.828,7.832 C114.593337,8.22400196 115.237331,8.76066326 115.76,9.442 C116.282669,10.1233367 116.679332,10.9259954 116.95,11.85 C117.220668,12.7740046 117.356,13.7679947 117.356,14.832 Z M129.9,13.124 C129.956,12.582664 129.918667,12.078669 129.788,11.612 C129.657333,11.145331 129.456668,10.7346684 129.186,10.38 C128.915332,10.0253316 128.584002,9.75000098 128.192,9.554 C127.799998,9.35799902 127.380002,9.26 126.932,9.26 C125.755994,9.26 124.799337,9.726662 124.062,10.66 C123.324663,11.593338 122.956,12.9279913 122.956,14.664 C122.956,15.5040042 123.067999,16.2646633 123.292,16.946 C123.516001,17.6273367 123.828665,18.2153309 124.23,18.71 C124.631335,19.2046691 125.102664,19.587332 125.644,19.858 C126.185336,20.128668 126.77333,20.264 127.408,20.264 C128.061337,20.264 128.672664,20.1986673 129.242,20.068 C129.811336,19.9373327 130.497329,19.6666687 131.3,19.256 L132,21.104 C131.103996,21.570669 130.236004,21.8833325 129.396,22.042 C128.555996,22.2006675 127.800003,22.28 127.128,22.28 C126.101328,22.28 125.168004,22.0886686 124.328,21.706 C123.487996,21.3233314 122.774003,20.7913367 122.186,20.11 C121.597997,19.4286633 121.145335,18.621338 120.828,17.688 C120.510665,16.754662 120.352,15.7373388 120.352,14.636 C120.352,13.4973276 120.510665,12.4753379 120.828,11.57 C121.145335,10.6646621 121.602664,9.89000322 122.2,9.246 C122.797336,8.60199678 123.515996,8.10733506 124.356,7.762 C125.196004,7.41666494 126.147995,7.244 127.212,7.244 C128.164005,7.244 129.01333,7.45866452 129.76,7.888 C130.50667,8.31733548 131.103998,8.89132974 131.552,9.61 C132.000002,10.3286703 132.275333,11.154662 132.378,12.088 C132.480667,13.021338 132.382668,13.991995 132.084,15 L123.964,15 C124.169334,14.458664 124.449332,14.0106684 124.804,13.656 C125.158668,13.3013316 125.671997,13.124 126.344,13.124 L129.9,13.124 Z M137.936,7.524 C138.234668,7.84133492 138.444666,8.18199818 138.566,8.546 C138.687334,8.91000182 138.794666,9.31599776 138.888,9.764 L138.888,10.268 L139.112,9.764 C139.485335,9.05466312 140.007997,8.47133562 140.68,8.014 C141.352003,7.55666438 142.070663,7.328 142.836,7.328 C143.209335,7.328 143.666664,7.40266592 144.208,7.552 L143.872,9.736 C143.573332,9.66133296 143.316668,9.61466676 143.102,9.596 C142.887332,9.57733324 142.696001,9.568 142.528,9.568 C142.098665,9.568 141.669335,9.65666578 141.24,9.834 C140.810665,10.0113342 140.428002,10.2866648 140.092,10.66 C139.755998,11.0333352 139.480668,11.5186637 139.266,12.116 C139.051332,12.7133363 138.944,13.4319958 138.944,14.272 L138.944,22 L136.452,22 L136.452,12.424 C136.452,11.565329 136.414667,10.6973377 136.34,9.82 C136.265333,8.94266228 136.153334,8.1773366 136.004,7.524 L137.936,7.524 Z M164.312,22.336 C162.874659,22.336 161.540006,22.0933358 160.308,21.608 C159.075994,21.1226642 158.002671,20.4273379 157.088,19.522 C156.173329,18.6166621 155.459336,17.5200064 154.946,16.232 C154.432664,14.9439936 154.176,13.4880081 154.176,11.864 C154.176,10.2959922 154.432664,8.86333982 154.946,7.566 C155.459336,6.26866018 156.173329,5.153338 157.088,4.22 C158.002671,3.286662 159.075994,2.5633359 160.308,2.05 C161.540006,1.5366641 162.874659,1.28 164.312,1.28 C165.096004,1.28 165.903329,1.35933254 166.734,1.518 C167.564671,1.67666746 168.409329,1.91466508 169.268,2.232 L168.54,4.052 C167.718663,3.79066536 166.972003,3.60400056 166.3,3.492 C165.627997,3.37999944 164.965337,3.324 164.312,3.324 C163.341328,3.324 162.417338,3.50133156 161.54,3.856 C160.662662,4.21066844 159.888003,4.74266312 159.216,5.452 C158.543997,6.16133688 158.012002,7.0526613 157.62,8.126 C157.227998,9.1993387 157.032,10.4453262 157.032,11.864 C157.032,13.1333397 157.227998,14.2859948 157.62,15.322 C158.012002,16.3580052 158.543997,17.2493296 159.216,17.996 C159.888003,18.7426704 160.662662,19.3166647 161.54,19.718 C162.417338,20.1193353 163.341328,20.32 164.312,20.32 C164.965337,20.32 165.63733,20.2360008 166.328,20.068 C167.01867,19.8999992 167.755996,19.620002 168.54,19.228 L169.268,21.048 C168.390662,21.514669 167.541337,21.845999 166.72,22.042 C165.898663,22.238001 165.096004,22.336 164.312,22.336 Z M175.344,22 L172.796,22 L172.796,0.776 L175.344,0.776 L175.344,22 Z M178.648,14.748 C178.648,13.4599936 178.843998,12.3446714 179.236,11.402 C179.628002,10.4593286 180.14133,9.68000308 180.776,9.064 C181.41067,8.44799692 182.133996,7.99066816 182.946,7.692 C183.758004,7.39333184 184.574663,7.244 185.396,7.244 C186.460005,7.244 187.411996,7.43999804 188.252,7.832 C189.092004,8.22400196 189.80133,8.75599664 190.38,9.428 C190.95867,10.1000034 191.397332,10.8933288 191.696,11.808 C191.994668,12.7226712 192.144,13.7026614 192.144,14.748 C192.144,15.9613394 191.962002,17.0393286 191.598,17.982 C191.233998,18.9246714 190.744003,19.7133302 190.128,20.348 C189.511997,20.9826698 188.793337,21.4633317 187.972,21.79 C187.150663,22.1166683 186.292004,22.28 185.396,22.28 C184.462662,22.28 183.585337,22.1166683 182.764,21.79 C181.942663,21.4633317 181.22867,20.9826698 180.622,20.348 C180.01533,19.7133302 179.534668,18.9246714 179.18,17.982 C178.825332,17.0393286 178.648,15.9613394 178.648,14.748 Z M181.42,14.748 C181.42,15.5693374 181.508666,16.3159966 181.686,16.988 C181.863334,17.6600034 182.119998,18.2386642 182.456,18.724 C182.792002,19.2093358 183.207331,19.587332 183.702,19.858 C184.196669,20.128668 184.76133,20.264 185.396,20.264 C186.068003,20.264 186.655997,20.1193348 187.16,19.83 C187.664003,19.5406652 188.079332,19.1440025 188.406,18.64 C188.732668,18.1359975 188.975333,17.5480034 189.134,16.876 C189.292667,16.2039966 189.372,15.4946704 189.372,14.748 C189.372,13.814662 189.264668,13.0026701 189.05,12.312 C188.835332,11.6213299 188.546002,11.0520022 188.182,10.604 C187.817998,10.1559978 187.393336,9.82000112 186.908,9.596 C186.422664,9.37199888 185.918669,9.26 185.396,9.26 C184.854664,9.26 184.346002,9.37199888 183.87,9.596 C183.393998,9.82000112 182.974002,10.1559978 182.61,10.604 C182.245998,11.0520022 181.956668,11.6213299 181.742,12.312 C181.527332,13.0026701 181.42,13.814662 181.42,14.748 Z M205.556,22 C205.107998,21.4959975 204.814001,20.9966691 204.674,20.502 C204.533999,20.0073309 204.464,19.4800028 204.464,18.92 L204.464,7.524 L207.068,7.524 L207.068,18.472 C207.068,18.9946693 207.100666,19.5499971 207.166,20.138 C207.231334,20.7260029 207.347999,21.3466634 207.516,22 L205.556,22 Z M197.996,18.052 C197.996,18.7053366 198.131332,19.2373313 198.402,19.648 C198.672668,20.0586687 199.106664,20.264 199.704,20.264 C199.928001,20.264 200.119333,20.2406669 200.278,20.194 C200.436667,20.1473331 200.646665,20.0960003 200.908,20.04 C201.449336,19.9093327 201.953331,19.8999994 202.42,20.012 C202.886669,20.1240006 203.315998,20.3853313 203.708,20.796 C202.718662,21.3933363 201.883337,21.789999 201.202,21.986 C200.520663,22.182001 199.928003,22.28 199.424,22.28 C198.863997,22.28 198.341336,22.2100007 197.856,22.07 C197.370664,21.9299993 196.941335,21.6826684 196.568,21.328 C196.194665,20.9733316 195.900668,20.5113362 195.686,19.942 C195.471332,19.3726638 195.364,18.6493377 195.364,17.772 L195.364,7.524 L197.996,7.524 L197.996,18.052 Z M211.24,14.692 C211.24,13.5719944 211.421998,12.5593379 211.786,11.654 C212.150002,10.7486621 212.63533,9.97866984 213.242,9.344 C213.84867,8.70933016 214.539329,8.21933506 215.314,7.874 C216.088671,7.52866494 216.895996,7.356 217.736,7.356 C218.165335,7.356 218.613331,7.38866634 219.08,7.454 C219.546669,7.51933366 220.031997,7.6453324 220.536,7.832 C220.274665,8.298669 219.934002,8.67666522 219.514,8.966 C219.093998,9.25533478 218.557337,9.39066676 217.904,9.372 C217.418664,9.35333324 216.942669,9.44199902 216.476,9.638 C216.009331,9.83400098 215.594002,10.1466645 215.23,10.576 C214.865998,11.0053355 214.572001,11.5606633 214.348,12.242 C214.123999,12.9233367 214.012,13.7399952 214.012,14.692 C214.012,15.5133374 214.095999,16.2646633 214.264,16.946 C214.432001,17.6273367 214.674665,18.2106642 214.992,18.696 C215.309335,19.1813358 215.705998,19.5639986 216.182,19.844 C216.658002,20.1240014 217.203997,20.264 217.82,20.264 C219.14534,20.264 220.367994,19.5826735 221.488,18.22 L221.488,0.776 L224.092,0.776 L224.092,17.212 C224.092,18.3320056 224.134,19.2886627 224.218,20.082 C224.302,20.8753373 224.399999,21.5146642 224.512,22 L222.636,22 C222.411999,21.7946656 222.230001,21.5846677 222.09,21.37 C221.949999,21.1553323 221.805334,20.8613352 221.656,20.488 L221.6,20.04 L221.376,20.516 C220.79733,21.1693366 220.13467,21.6266654 219.388,21.888 C218.64133,22.1493346 217.97867,22.28 217.4,22.28 C216.410662,22.28 215.538004,22.084002 214.782,21.692 C214.025996,21.299998 213.382003,20.7633367 212.85,20.082 C212.317997,19.4006633 211.916668,18.5980046 211.646,17.674 C211.375332,16.7499954 211.24,15.7560053 211.24,14.692 Z" id="LOGO_内容页" fill="#FFFFFF"></path>
    </g>
</svg>