<?xml version="1.0" standalone="no"?><!DOCTYPE svg PUBLIC "-//W3C//DTD SVG 1.1//EN" "http://www.w3.org/Graphics/SVG/1.1/DTD/svg11.dtd"><svg class="icon" width="16px" height="16.00px" viewBox="0 0 1024 1024" version="1.1" xmlns="http://www.w3.org/2000/svg"><path d="M594.407 856.148l50.772-50.772 101.545 101.545-50.772 50.772-101.545-101.545z" fill="#31A5F2" /><path d="M1000.614 754.604l-253.861 253.861-50.772-50.772 253.861-253.861 50.772 50.772z" fill="#31A5F2" /><path d="M511.619 14.875c-160.051 0-289.798 129.747-289.798 289.798s129.747 289.798 289.798 289.798 289.798-129.747 289.798-289.798-129.747-289.798-289.798-289.798zM511.619 511.67c-114.322 0-206.999-92.677-206.999-206.999s92.677-206.999 206.999-206.999 206.999 92.677 206.999 206.999-92.677 206.999-206.999 206.999z" fill="#31A5F2" /><path d="M511.619 594.469c96.844 0 185.915 33.262 256.432 88.972l58.89-58.89c-85.776-70.532-195.601-112.882-315.322-112.882-274.374 0-496.796 222.423-496.796 496.796h82.8c-0.001-228.645 185.351-413.999 413.998-413.999z" fill="#31A5F2" /></svg>