<?xml version="1.0" standalone="no"?><!DOCTYPE svg PUBLIC "-//W3C//DTD SVG 1.1//EN" "http://www.w3.org/Graphics/SVG/1.1/DTD/svg11.dtd"><svg class="icon" width="16px" height="16.00px" viewBox="0 0 1024 1024" version="1.1" xmlns="http://www.w3.org/2000/svg"><path d="M985.217276 762.72691 723.263787 1024 670.87309 972.289701 932.826578 710.336213 985.217276 762.72691Z" fill="#9A9A9A" /><path d="M670.87309 762.72691 932.826578 1024 985.217276 972.289701 723.263787 710.336213 670.87309 762.72691Z" fill="#9A9A9A" /><path d="M551.122924 0C385.786047 0 252.427907 134.038538 252.427907 298.695017c0 165.336877 134.038538 298.695017 298.695017 298.695017s298.695017-134.038538 298.695017-298.695017C849.81794 134.038538 715.779402 0 551.122924 0L551.122924 0zM551.122924 512.340199c-117.70897 0-213.645183-95.255814-213.645183-213.645183 0-117.70897 95.255814-213.645183 213.645183-213.645183 117.70897 0 213.645183 95.255814 213.645183 213.645183C764.087708 416.403987 668.831894 512.340199 551.122924 512.340199L551.122924 512.340199z" fill="#9A9A9A" /><path d="M551.122924 597.390033c100.018605 0 191.872425 34.019934 264.675083 91.853821l60.555482-60.555482c-88.451827-72.802658-201.398007-116.348173-325.230565-116.348173C268.077076 512.340199 38.782724 741.634551 38.782724 1024l85.049834 0C123.832558 788.58206 315.024585 597.390033 551.122924 597.390033L551.122924 597.390033 551.122924 597.390033z" fill="#9A9A9A" /></svg>