<?xml version="1.0" standalone="no"?><!DOCTYPE svg PUBLIC "-//W3C//DTD SVG 1.1//EN" "http://www.w3.org/Graphics/SVG/1.1/DTD/svg11.dtd"><svg class="icon" width="16px" height="16.00px" viewBox="0 0 1024 1024" version="1.1" xmlns="http://www.w3.org/2000/svg"><path d="M528.0758 47.3119c-247.5592 0-448.2529 200.6938-448.2529 448.254 0 247.5602 200.6938 448.2529 448.2529 448.2529 247.5602 0 448.254-200.6927 448.254-448.2529C976.3297 248.0056 775.636 47.3119 528.0758 47.3119zM762.5503 523.5548c0 3.9311-1.5002 7.8623-4.4995 10.8605s-6.9304 4.4995-10.8605 4.4995h-166.912v166.912c0 3.9311-1.5002 7.8623-4.4995 10.8605s-6.9304 4.4995-10.8605 4.4995h-53.248000000000005c-3.9311 0-7.8623-1.5002-10.8605-4.4995-2.9993-2.9993-4.4995-6.9304-4.4995-10.8605v-166.912h-166.912c-3.9311 0-7.8623-1.5002-10.8605-4.4995-2.9993-2.9993-4.4995-6.9304-4.4995-10.8605v-53.248000000000005c0-3.9311 1.4991-7.8623 4.4995-10.8605 2.9993-2.9993 6.9304-4.4995 10.8605-4.4995h166.912v-166.912c0-3.9311 1.4991-7.8623 4.4995-10.8605 2.9993-2.9993 6.9304-4.4995 10.8605-4.4995h53.248000000000005c3.9311 0 7.8623 1.4991 10.8605 4.4995 2.9993 2.9993 4.4995 6.9304 4.4995 10.8605v166.912h166.912c3.9311 0 7.8623 1.4991 10.8605 4.4995 2.9993 2.9993 4.4995 6.9304 4.4995 10.8605V523.554816z" fill="#ffffff" /></svg>