<?xml version="1.0" standalone="no"?><!DOCTYPE svg PUBLIC "-//W3C//DTD SVG 1.1//EN" "http://www.w3.org/Graphics/SVG/1.1/DTD/svg11.dtd"><svg class="icon" width="16px" height="16.00px" viewBox="0 0 1024 1024" version="1.1" xmlns="http://www.w3.org/2000/svg"><path d="M1005.095385 742.006154 1005.095385 742.006154C992.492308 729.403077 976.738462 723.101538 960.984615 723.101538L960.984615 723.101538 945.230769 723.101538 945.230769 707.347692C945.230769 672.689231 916.873846 644.332308 882.215385 644.332308L866.461538 644.332308 866.461538 628.578462C866.461538 611.249231 860.16 595.495385 847.556923 584.467692L749.883077 486.793846C786.116923 357.612308 751.458462 217.403077 653.784615 119.729231 582.892308 48.836923 488.369231 9.452308 389.12 9.452308 288.295385 9.452308 195.347692 48.836923 124.455385 119.729231 53.563077 190.621538 14.178462 285.144615 14.178462 384.393846 14.178462 483.643077 53.563077 578.166154 124.455385 649.058462 195.347692 719.950769 289.870769 759.335385 389.12 759.335385 423.778462 759.335385 458.436923 754.609231 489.944615 745.156923L745.156923 1000.369231C757.76 1012.972308 773.513846 1019.273846 789.267692 1019.273846L792.418462 1019.273846 954.683077 1009.821538C986.190769 1008.246154 1012.972308 983.04 1014.547692 949.956923L1024 787.692308C1024 771.938462 1017.698462 754.609231 1005.095385 742.006154L1005.095385 742.006154ZM953.107692 948.381538 790.843077 957.833846 508.849231 675.84C471.04 691.593846 430.08 699.470769 390.695385 699.470769 310.350769 699.470769 231.581538 669.538462 170.141538 608.098462 48.836923 486.793846 48.836923 288.295385 170.141538 166.990769 231.581538 105.550769 310.350769 75.618462 390.695385 75.618462 471.04 75.618462 549.809231 105.550769 611.249231 166.990769 702.621538 258.363077 724.676923 392.270769 678.990769 505.698462L803.446154 630.153846 803.446154 708.923077 882.215385 708.923077 882.215385 787.692308 960.984615 787.692308 953.107692 948.381538 953.107692 948.381538Z" fill="#9A9A9A" /><path d="M297.747692 408.024615C327.68 408.024615 357.612308 395.421538 378.092308 374.941538 400.147692 352.886154 411.175385 324.529231 411.175385 294.596923 411.175385 264.664615 398.572308 234.732308 378.092308 214.252308 356.036923 192.196923 327.68 181.169231 297.747692 181.169231 267.815385 181.169231 237.883077 193.772308 217.403077 214.252308 173.292308 258.363077 173.292308 330.830769 217.403077 374.941538 239.458462 395.421538 267.815385 408.024615 297.747692 408.024615L297.747692 408.024615ZM247.335385 242.609231C261.513846 228.430769 278.843077 222.129231 297.747692 222.129231 316.652308 222.129231 335.556923 230.006154 348.16 242.609231 362.338462 256.787692 368.64 274.116923 368.64 293.021538 368.64 311.926154 360.763077 330.830769 348.16 343.433846 333.981538 357.612308 316.652308 363.913846 297.747692 363.913846 278.843077 363.913846 259.938462 356.036923 247.335385 343.433846 218.978462 316.652308 218.978462 270.966154 247.335385 242.609231L247.335385 242.609231Z" fill="#9A9A9A" /><path d="M586.043077 551.384615C671.113846 450.56 667.963077 297.747692 571.864615 203.224615 535.630769 166.990769 489.944615 141.784615 437.956923 132.332308 426.929231 130.756923 415.901538 137.058462 412.750769 149.661538 411.175385 160.689231 417.476923 171.716923 430.08 174.867692 472.615385 182.744615 510.424615 203.224615 541.932308 234.732308 625.427692 318.227692 625.427692 455.286154 541.932308 538.781538 500.972308 579.741538 447.409231 601.796923 389.12 601.796923 330.830769 601.796923 277.267692 579.741538 236.307692 538.781538 206.375385 508.849231 185.895385 469.464615 176.443077 426.929231 174.867692 415.901538 163.84 408.024615 151.236923 409.6 140.209231 411.175385 132.332308 422.203077 133.907692 434.806154 143.36 485.218462 168.566154 530.904615 204.8 568.713846 253.636923 617.550769 318.227692 644.332308 385.969231 644.332308 447.409231 644.332308 505.698462 622.276923 552.96 582.892308L841.255385 871.187692C845.981538 875.913846 850.707692 877.489231 855.433846 877.489231 860.16 877.489231 866.461538 875.913846 869.612308 871.187692 877.489231 863.310769 877.489231 849.132308 869.612308 841.255385L586.043077 551.384615 586.043077 551.384615Z" fill="#9A9A9A" /></svg>